<svg width="304" height="104" viewBox="0 0 304 104" fill="none" xmlns="http://www.w3.org/2000/svg">
<path d="M33.8438 66.9531C33.8438 65.7969 33.7344 64.7656 33.5156 63.8594C33.2969 62.9219 32.875 62.0625 32.25 61.2812C31.625 60.4688 30.6875 59.6562 29.4375 58.8438C28.1875 58.0312 26.5469 57.1875 24.5156 56.3125C22.0156 55.2812 19.5781 54.1562 17.2031 52.9375C14.8594 51.6875 12.75 50.25 10.875 48.625C9 46.9688 7.5 45.0312 6.375 42.8125C5.25 40.5625 4.6875 37.9375 4.6875 34.9375C4.6875 32.0312 5.23438 29.4062 6.32812 27.0625C7.42188 24.6875 8.95312 22.6719 10.9219 21.0156C12.8906 19.3281 15.2188 18.0469 17.9062 17.1719C20.5938 16.2656 23.5469 15.8125 26.7656 15.8125C31.1094 15.8125 34.9062 16.7031 38.1562 18.4844C41.4062 20.2344 43.9375 22.7031 45.75 25.8906C47.5625 29.0469 48.4688 32.7344 48.4688 36.9531H33.6562C33.6562 35.1094 33.4062 33.5 32.9062 32.125C32.4062 30.7188 31.625 29.625 30.5625 28.8438C29.5312 28.0313 28.1719 27.625 26.4844 27.625C24.9219 27.625 23.625 27.9531 22.5938 28.6094C21.5625 29.2656 20.7969 30.1562 20.2969 31.2812C19.7969 32.4062 19.5469 33.6562 19.5469 35.0312C19.5469 36.125 19.7969 37.0938 20.2969 37.9375C20.8281 38.7812 21.5312 39.5625 22.4062 40.2812C23.3125 41 24.375 41.6875 25.5938 42.3438C26.8438 43 28.1875 43.625 29.625 44.2188C32.6875 45.4375 35.4062 46.7656 37.7812 48.2031C40.1875 49.6406 42.1875 51.2656 43.7812 53.0781C45.4062 54.8594 46.625 56.8906 47.4375 59.1719C48.2812 61.4219 48.7031 63.9844 48.7031 66.8594C48.7031 69.7969 48.2031 72.4531 47.2031 74.8281C46.2031 77.1719 44.7656 79.1719 42.8906 80.8281C41.0469 82.4844 38.7969 83.75 36.1406 84.625C33.4844 85.5 30.5156 85.9375 27.2344 85.9375C24.1406 85.9375 21.1562 85.5 18.2812 84.625C15.4062 83.7188 12.8438 82.3438 10.5938 80.5C8.375 78.6562 6.60938 76.2969 5.29688 73.4219C3.98438 70.5469 3.32812 67.125 3.32812 63.1562H18.2344C18.2344 65.1875 18.4062 66.9219 18.75 68.3594C19.125 69.7656 19.6875 70.8906 20.4375 71.7344C21.2188 72.5781 22.1719 73.2031 23.2969 73.6094C24.4531 73.9844 25.8281 74.1719 27.4219 74.1719C29.0469 74.1719 30.3281 73.8438 31.2656 73.1875C32.2031 72.5312 32.8594 71.6719 33.2344 70.6094C33.6406 69.5156 33.8438 68.2969 33.8438 66.9531ZM83.875 16.75V85H69.0156V16.75H83.875ZM100.609 16.75V28.8438H52.6562V16.75H100.609ZM106.109 16.75H128.75C133.312 16.75 137.234 17.5313 140.516 19.0938C143.797 20.6562 146.312 22.9688 148.062 26.0312C149.844 29.0937 150.734 32.875 150.734 37.375C150.734 41.1875 150.234 44.4062 149.234 47.0312C148.234 49.625 146.828 51.7812 145.016 53.5C143.203 55.2188 141.062 56.6094 138.594 57.6719L133.859 60.4375H115.812L115.766 48.3906H128.375C130.062 48.3906 131.453 48 132.547 47.2188C133.641 46.4375 134.453 45.3281 134.984 43.8906C135.547 42.4219 135.828 40.6875 135.828 38.6875C135.828 36.625 135.562 34.8594 135.031 33.3906C134.531 31.9219 133.766 30.7969 132.734 30.0156C131.734 29.2344 130.406 28.8438 128.75 28.8438H121.016V85H106.109V16.75ZM136.766 85L124.438 54.6719L140.094 54.625L152.703 84.2969V85H136.766ZM197.625 72.9531V85H167.859V72.9531H197.625ZM172.781 16.75V85H157.875V16.75H172.781ZM193.688 44.125V55.75H167.859V44.125H193.688ZM197.625 16.75V28.8438H167.859V16.75H197.625ZM235.047 62.0781H249.859C249.766 67.2031 248.75 71.5469 246.812 75.1094C244.875 78.6719 242.125 81.375 238.562 83.2188C235 85.0312 230.781 85.9375 225.906 85.9375C222.031 85.9375 218.594 85.2812 215.594 83.9688C212.594 82.625 210.047 80.6875 207.953 78.1562C205.891 75.625 204.328 72.5156 203.266 68.8281C202.234 65.1406 201.719 60.9219 201.719 56.1719V45.5781C201.719 40.8594 202.281 36.6406 203.406 32.9219C204.531 29.2031 206.125 26.0781 208.188 23.5469C210.281 20.9844 212.828 19.0469 215.828 17.7344C218.828 16.4219 222.188 15.7656 225.906 15.7656C231 15.7656 235.281 16.7187 238.75 18.625C242.219 20.5313 244.891 23.2969 246.766 26.9219C248.641 30.5469 249.703 34.9375 249.953 40.0938H235.094C235.125 36.9688 234.844 34.5312 234.25 32.7812C233.688 31 232.734 29.75 231.391 29.0312C230.047 28.2812 228.219 27.9062 225.906 27.9062C224.25 27.9062 222.828 28.2188 221.641 28.8438C220.453 29.4375 219.5 30.4219 218.781 31.7969C218.062 33.1719 217.531 34.9844 217.188 37.2344C216.844 39.4844 216.672 42.2344 216.672 45.4844V56.1719C216.672 59.4219 216.812 62.1719 217.094 64.4219C217.375 66.6406 217.859 68.4531 218.547 69.8594C219.234 71.2344 220.172 72.2344 221.359 72.8594C222.547 73.4844 224.062 73.7969 225.906 73.7969C227.969 73.7969 229.672 73.4844 231.016 72.8594C232.359 72.2031 233.359 71.0312 234.016 69.3438C234.703 67.6562 235.047 65.2344 235.047 62.0781Z" fill="#FDFDFD"/>
<path d="M279.921 21.5C284.167 21.5 288.678 24.0727 292.376 29.6016C296.05 35.0938 298.5 42.9969 298.5 52C298.5 61.0031 296.05 68.9062 292.376 74.3984C288.678 79.9273 284.167 82.5 279.921 82.5C275.674 82.5 271.164 79.9273 267.466 74.3984C263.792 68.9062 261.342 61.0031 261.342 52C261.342 42.9969 263.792 35.0938 267.466 29.6016C271.164 24.0727 275.674 21.5 279.921 21.5Z" stroke="#FDFDFD" stroke-width="11"/>
<ellipse cx="279.419" cy="52" rx="8.52805" ry="16" fill="#FF2F2F"/>
</svg>
